<svg version="1.1" id="Layer_1" xmlns="http://www.w3.org/2000/svg" xmlns:xlink="http://www.w3.org/1999/xlink" x="0px" y="0px"
	 width="100%" viewBox="0 0 496 496" enable-background="new 0 0 496 496" xml:space="preserve">
<path fill="#000000" opacity="1.000000" stroke="none" 
	d="
M365.958221,352.040741 
	C366.904968,356.146545 371.140137,357.849304 374.388275,355.320038 
	C376.312256,353.821899 378.041107,352.073212 380.170990,350.155060 
	C379.884338,357.308868 371.954620,362.020264 366.397125,358.949951 
	C356.885803,353.695312 356.110168,345.441254 364.762512,339.132141 
	C368.243805,336.593597 367.511627,334.676971 364.697937,332.578369 
	C362.476654,330.921509 360.916504,329.238464 363.183899,326.606049 
	C365.540131,326.281555 366.378235,328.979004 369.002716,328.945007 
	C367.787933,327.588104 366.856049,326.547058 365.923981,325.506226 
	C364.270935,323.660187 362.506775,322.646240 360.573822,325.093048 
	C358.910370,327.198700 356.709778,329.669098 359.804749,331.938721 
	C364.331879,335.258698 363.217224,337.662628 359.716888,340.986633 
	C354.906219,345.554962 356.496613,355.197205 362.139435,358.807892 
	C364.372192,360.236511 366.426758,361.946106 368.543152,363.553162 
	C369.746887,364.467133 371.222870,365.437988 369.967743,367.183777 
	C368.577118,369.118164 366.614624,368.789642 365.179260,367.424225 
	C362.669739,365.037018 360.311096,362.460236 358.124725,359.771362 
	C354.662445,355.513336 351.412201,351.083405 348.032074,346.757599 
	C347.132477,345.606293 346.243835,344.057648 344.421082,344.798309 
	C342.371918,345.630981 340.445007,346.966675 339.958191,349.196625 
	C339.548523,351.073151 341.360931,351.838409 342.470642,352.860474 
	C344.342926,351.284363 342.016693,349.743439 343.335602,348.117340 
	C346.153107,348.341217 348.181122,350.209381 349.966278,352.325012 
	C353.823761,356.896637 356.787933,362.208282 361.340210,366.203278 
	C364.033356,368.566742 364.623871,370.768738 361.125061,372.863037 
	C358.545715,374.406952 357.129303,377.559082 353.399872,378.253448 
	C355.604095,374.297302 359.074463,370.498840 355.143677,366.267639 
	C352.095215,362.986237 348.848572,359.191589 343.840759,363.091919 
	C340.859406,359.214142 351.971680,359.069885 345.318817,354.425751 
	C344.069916,355.935974 343.663055,357.912628 341.641113,358.819611 
	C338.162811,360.379822 335.739990,363.392273 334.593964,366.901337 
	C333.291382,370.889893 331.053528,372.803070 326.889893,372.721649 
	C325.781921,372.699951 324.663177,373.228516 323.032562,373.632477 
	C326.615082,376.219604 331.645844,376.373657 333.259552,382.063568 
	C329.009552,379.941040 324.861725,378.814972 322.090240,376.219330 
	C319.323120,373.627716 317.247742,374.566956 314.987793,375.746185 
	C312.274261,377.162079 310.031494,379.282745 310.227448,382.765167 
	C310.406036,385.939331 313.115753,385.922607 316.427795,386.456055 
	C311.502045,388.747894 310.536469,391.979523 312.468506,396.235260 
	C312.023682,396.305817 311.578888,396.376373 311.134094,396.446930 
	C308.441833,390.583954 305.603210,384.781067 303.156342,378.817413 
	C302.514069,377.252075 303.827911,375.003204 305.560730,375.040375 
	C311.214142,375.161560 314.189209,370.885895 317.520081,367.763550 
	C323.426270,362.227173 329.342102,356.502380 333.149078,349.168427 
	C335.208771,345.200592 338.423615,342.411560 342.471893,341.527863 
	C349.299866,340.037323 351.873993,335.473358 353.011841,329.409637 
	C353.393982,327.373260 354.131012,325.623749 355.631836,324.155884 
	C359.286469,320.581451 361.382965,316.039825 363.324432,311.424286 
	C366.484406,303.911896 370.297882,296.441681 374.790131,289.976624 
	C380.950836,281.110382 382.631683,272.525330 380.603577,262.489166 
	C380.319794,261.084869 380.792145,259.513947 380.986206,258.029541 
	C381.528870,253.878998 379.789795,251.316101 375.740479,250.262634 
	C371.968384,249.281265 367.745483,248.703415 370.481506,242.891663 
	C371.175781,241.416962 369.544861,240.166016 368.659943,238.998535 
	C364.698669,233.772339 362.422211,227.863831 360.080444,221.729446 
	C356.562225,212.513168 352.047760,203.412842 340.976959,200.299789 
	C334.153503,198.381073 329.106720,194.167099 324.352020,188.429031 
	C315.680206,177.963654 303.279510,173.595474 289.766602,173.069809 
	C281.447815,172.746201 273.106903,173.034317 264.777374,172.931473 
	C256.874084,172.833908 249.547562,167.534363 246.726868,160.167297 
	C245.676819,157.424805 246.351303,154.892944 247.447906,152.431320 
	C249.012924,148.918243 250.358658,145.347610 251.129181,141.571243 
	C252.061691,137.000870 250.635284,134.641281 246.036346,133.610306 
	C244.100845,133.176392 242.049805,133.279083 240.093552,132.912369 
	C235.221603,131.999039 231.612274,129.390060 231.155365,124.213081 
	C230.734787,119.447716 230.720459,114.766830 225.304382,112.816803 
	C228.902115,107.227783 228.662720,103.268143 224.862106,98.436043 
	C225.284622,107.435516 224.953659,107.981071 219.097031,107.168831 
	C219.804749,100.242928 219.578217,93.335655 216.506165,86.486809 
	C214.284042,88.815941 215.934052,90.829224 216.293625,92.758240 
	C216.718826,95.039330 217.529495,97.248726 217.951614,99.530174 
	C218.563049,102.834801 217.144104,105.290062 213.877808,105.865601 
	C210.781723,106.411156 208.905853,104.352036 208.117065,101.493965 
	C207.278656,98.456184 206.600708,95.372276 205.915695,92.294495 
	C205.241440,89.265030 203.222717,88.769669 200.611984,89.402954 
	C198.220673,89.983032 197.502319,91.170776 197.388092,93.974495 
	C197.129456,100.322525 200.682816,105.304016 202.635040,111.351082 
	C199.183167,111.248825 196.550186,109.064827 193.727859,109.900452 
	C192.845734,108.155144 193.752319,107.574997 194.474396,106.899178 
	C196.284317,105.205193 196.073608,103.303101 194.744293,101.534683 
	C193.318436,99.637825 191.483627,100.176498 189.857224,101.267990 
	C187.612427,102.774475 185.211426,103.872597 182.599319,104.508560 
	C180.515152,105.015999 178.940094,104.152138 178.065155,102.320015 
	C176.995728,100.080643 178.511169,98.910736 180.266190,98.046516 
	C182.655502,96.869949 185.122513,95.847679 187.487610,94.626411 
	C189.732681,93.467140 192.189758,92.321960 190.554962,88.975365 
	C189.005386,85.803261 186.699585,85.842461 183.890549,87.169479 
	C178.630844,89.654221 173.324051,92.039551 168.029114,94.449219 
	C167.293259,94.784088 166.531158,95.229492 165.639984,94.616516 
	C164.972687,93.084373 165.911774,91.706490 167.038391,91.408173 
	C171.997498,90.095047 175.119598,85.704361 179.891144,84.089493 
	C182.609787,83.169411 185.375259,82.051079 188.137619,82.755402 
	C199.152847,85.563942 208.562347,82.637611 217.000458,75.427490 
	C219.999069,72.865250 222.909790,69.931633 226.384399,68.249306 
	C234.310120,64.411827 242.913345,62.436501 251.512924,65.203232 
	C259.102509,67.645027 266.337952,66.555824 273.644379,64.955559 
	C278.377838,63.918831 282.522247,63.717567 286.956665,66.556862 
	C291.394562,69.398354 296.427216,71.446198 301.412231,73.254616 
	C305.316193,74.670853 308.461182,76.866333 311.315247,79.720345 
	C315.788971,84.193977 321.087921,85.525261 327.336731,84.444893 
	C336.674164,82.830528 345.533844,83.145966 354.078735,88.769089 
	C361.840515,93.876892 371.333984,95.465324 380.033722,98.684830 
	C381.569733,99.253288 383.420319,99.077995 384.683289,100.308037 
	C388.653168,104.174446 391.695282,109.118477 397.918091,110.187500 
	C399.470520,110.454193 400.675720,112.818672 400.714447,114.648590 
	C400.819458,119.607346 403.397644,123.456345 405.741577,127.494148 
	C408.428406,132.122528 410.302979,137.081024 411.643463,142.297272 
	C414.116333,151.919952 418.877319,159.814880 427.480347,165.632553 
	C435.115173,170.795471 439.992035,178.497803 441.862183,187.734894 
	C442.951508,193.115402 444.048798,198.499146 444.166840,204.039780 
	C444.284760,209.574600 446.978027,214.248520 449.647095,218.881653 
	C454.436554,227.195450 453.339722,235.240799 446.466675,241.991165 
	C443.607971,244.798874 441.198822,244.119171 438.998352,241.117432 
	C437.730347,239.387634 436.439087,237.117798 433.872803,238.176804 
	C431.661591,239.089310 431.296814,241.477280 431.139343,243.704254 
	C430.605103,251.260727 433.606903,254.389191 441.270508,254.091995 
	C443.735016,253.996414 445.444122,254.909378 446.533630,257.080627 
	C447.355530,258.718597 448.179718,260.355499 449.011505,261.988464 
	C450.715149,265.333008 452.963196,265.695526 454.921753,262.488953 
	C456.819458,259.381989 459.253204,259.339813 462.194641,260.133209 
	C468.918060,261.946747 474.649689,270.649353 473.582458,277.563843 
	C473.074524,280.854736 472.568207,284.160828 471.773193,287.389130 
	C470.302765,293.359863 466.616821,294.528656 462.070343,290.433960 
	C460.279449,288.821014 458.202209,287.876343 456.135437,286.820374 
	C455.058228,286.269989 453.674500,285.718964 452.810944,286.492310 
	C448.083862,290.725586 441.894348,293.858887 441.042053,301.184357 
	C440.347565,307.153198 439.365814,308.067719 433.447357,307.315277 
	C430.289093,306.913727 427.547546,307.968048 424.747284,309.044952 
	C423.130157,309.666840 420.834259,310.284119 420.622192,308.089813 
	C420.076538,302.443542 415.507111,303.031555 412.434082,303.191772 
	C409.408417,303.349487 407.037079,303.035553 404.533142,301.515503 
	C402.612213,300.349335 400.465759,299.885437 398.093719,302.386902 
	C402.806183,306.815948 408.716064,309.630249 415.317627,313.422485 
	C405.662201,318.154755 406.673828,330.198059 397.398132,334.754608 
	C400.879822,329.165710 403.291626,323.450623 401.146362,316.940186 
	C400.608215,322.942719 398.913147,327.929565 393.489990,331.798645 
	C387.014832,336.418243 382.582764,332.004242 377.417877,329.555359 
	C379.584503,333.106293 382.562836,335.548462 386.566498,336.163330 
	C392.865509,337.130615 393.857605,338.389832 392.390259,344.556366 
	C391.686432,347.514069 390.636627,350.171600 386.949738,351.950348 
	C387.452454,348.325165 392.095276,345.380981 387.296539,342.346130 
	C384.365631,340.492462 381.667267,338.275787 378.266937,336.865509 
	C379.911774,339.979645 381.559967,341.437561 386.079803,343.805054 
	C386.001373,346.458496 384.211578,347.699158 381.850403,348.860657 
	C379.665619,346.830231 379.074554,343.457672 375.594269,341.976654 
	C376.954529,345.887787 378.249146,349.643280 374.566071,352.521393 
	C371.950317,354.565491 369.258881,353.931213 366.268799,351.794617 
	C363.174957,348.264709 365.692200,345.149261 366.446503,341.430878 
	C360.792511,346.390076 360.863190,349.225739 365.958221,352.040741 
M382.158173,194.703537 
	C383.650513,198.384888 383.581970,203.221588 389.372528,204.564301 
	C392.918854,207.608826 396.904877,208.917725 401.485657,207.806137 
	C402.560028,205.559570 403.156036,203.407486 402.725861,200.989517 
	C400.393036,200.769669 398.171509,200.723984 396.393158,202.041183 
	C394.125305,203.720947 391.757568,204.480087 388.640289,203.427246 
	C385.639191,200.843277 385.682648,196.099899 382.203003,193.369995 
	C381.897156,186.381897 380.719757,183.801636 377.266479,183.558334 
	C379.360352,186.971344 379.577911,190.929703 382.158173,194.703537 
M393.105133,233.686600 
	C393.520630,235.526077 394.229401,237.421860 396.389252,237.303177 
	C398.356995,237.195038 399.438690,235.662201 399.508942,233.036850 
	C397.205780,234.305893 395.086792,233.843689 393.140320,232.474792 
	C392.989136,221.507477 393.278564,216.258194 401.636139,213.113190 
	C396.262909,212.427689 393.522766,215.835938 391.644501,219.015411 
	C388.927002,223.615631 389.855103,228.591629 393.105133,233.686600 
M252.325500,74.416710 
	C247.065048,71.763832 245.264069,73.304886 245.141159,79.453613 
	C245.020660,85.483299 250.151733,91.475800 245.305847,97.552864 
	C245.016144,97.916168 245.167084,99.191910 245.516739,99.417664 
	C249.206482,101.799835 247.735596,104.021873 245.056915,106.097298 
	C247.098465,108.756714 249.534378,108.182861 252.570084,108.238548 
	C252.570084,97.018845 252.570084,86.120560 252.325500,74.416710 
M286.416321,92.075172 
	C283.644714,90.631218 280.953308,89.091621 279.443604,84.807396 
	C277.852448,92.880554 285.816040,91.372101 287.509979,95.422142 
	C284.600525,97.676933 281.903198,94.186951 279.253723,95.007065 
	C278.966766,96.158813 279.527283,96.504601 280.076538,96.897446 
	C283.961792,99.676224 289.550629,100.253693 291.276154,105.886314 
	C291.630829,107.043976 293.680359,107.048027 294.174225,105.917809 
	C295.233215,103.494347 296.172852,100.367790 294.218811,98.393280 
	C292.084808,96.236931 290.047089,93.671013 286.416321,92.075172 
M331.859283,108.543304 
	C333.806885,109.982750 334.945557,111.819397 335.473846,114.265991 
	C335.951355,116.477280 336.867950,118.799652 340.005371,118.131737 
	C342.735687,108.711205 333.771088,102.511063 326.111328,101.571358 
	C324.899139,101.422653 324.245026,102.070343 323.902252,103.108017 
	C323.476807,104.395821 323.771454,105.355095 325.180420,105.854568 
	C327.209900,106.574013 329.212494,107.369217 331.859283,108.543304 
M390.025543,178.195389 
	C388.719360,179.095963 387.413208,179.996521 386.177429,180.848557 
	C386.700531,182.834854 387.146454,184.527969 387.591034,186.216064 
	C399.065247,184.260422 398.092804,184.172668 399.612793,174.621857 
	C396.068848,174.295303 393.353333,176.158661 390.025543,178.195389 
M231.289902,94.182373 
	C231.192978,99.133644 232.224899,103.937508 232.969681,109.317551 
	C235.445755,107.942451 239.376740,110.575768 239.702240,105.872459 
	C239.988953,101.729523 240.041428,97.520561 238.105286,93.460266 
	C234.967072,97.894402 241.006073,102.580200 236.878601,107.045341 
	C231.602631,105.539352 234.879059,100.951729 233.677353,98.129593 
	C232.286346,94.862846 233.093552,91.318779 232.640137,86.869522 
	C231.046280,89.740494 231.319473,91.591278 231.289902,94.182373 
M404.991943,258.077362 
	C406.885986,263.411774 412.149475,264.291199 416.327972,266.575623 
	C417.084473,266.989197 418.028320,266.526642 418.436920,265.709381 
	C418.983063,264.616974 419.009216,263.377716 418.378418,262.340820 
	C416.487915,259.233215 409.256104,256.637634 404.991943,258.077362 
M403.366089,294.806976 
	C405.838501,294.493500 407.895264,293.556244 409.681305,290.652771 
	C406.159790,291.694336 403.367401,293.255402 400.569397,291.125946 
	C404.800690,280.858459 404.800690,280.858459 401.735901,278.354462 
	C399.440704,281.443634 399.559845,285.238892 398.695557,288.727356 
	C397.874207,292.042511 398.988312,294.275818 403.366089,294.806976 
M373.275055,154.514587 
	C376.769470,154.370224 380.380920,155.567627 384.501038,154.073975 
	C380.960785,150.793808 378.532410,147.387451 373.696747,150.014847 
	C368.856842,152.644577 367.308441,154.733139 368.262451,159.045288 
	C367.998138,155.671799 369.698364,154.378860 373.275055,154.514587 
M304.909790,91.823288 
	C304.553925,92.368538 304.093750,92.900955 304.769012,93.649902 
	C307.028381,92.889259 307.755432,89.694664 310.906403,89.728676 
	C312.154144,92.386086 311.507935,95.881538 314.337433,97.752472 
	C312.710754,99.833664 310.008728,99.390404 308.714478,101.348289 
	C316.169281,101.409065 316.169250,101.409058 316.749878,100.295013 
	C317.265350,99.306061 313.373138,88.635979 312.394379,88.095306 
	C308.537903,85.964890 307.048035,88.926262 304.909790,91.823288 
M410.041931,276.810150 
	C411.336914,279.226074 409.371246,281.631134 409.918152,284.030670 
	C411.669189,284.531616 413.315155,285.002502 415.417786,285.604034 
	C416.011993,279.807922 415.623596,274.883331 410.313904,270.343964 
	C410.944153,272.450195 411.578461,273.879944 409.541779,274.198456 
	C408.362091,274.382904 406.740387,273.785980 406.144226,276.251770 
	C407.548248,275.309875 408.752563,275.132751 410.041931,276.810150 
M410.167542,248.812286 
	C412.325775,247.588058 413.745148,245.954453 413.310608,243.099396 
	C408.688019,243.520767 404.307983,244.405716 400.338806,246.813721 
	C402.550995,251.260681 405.913727,250.838608 410.167542,248.812286 
M325.420135,123.901283 
	C322.671814,122.899345 321.184601,120.649940 319.759521,116.794144 
	C319.378845,120.121254 319.162079,122.015755 318.938568,123.969261 
	C322.965271,127.406441 328.348755,128.381409 332.508484,131.729752 
	C330.730988,128.770142 330.249634,124.889931 325.420135,123.901283 
M389.464813,278.323822 
	C388.853577,282.572693 388.174103,286.837799 392.181549,290.292084 
	C394.062103,289.011993 396.101196,288.195587 395.623932,285.264038 
	C393.972443,285.701538 392.789001,287.554596 391.070618,285.972443 
	C389.618011,284.635010 389.162659,282.748474 390.186066,281.487701 
	C393.226257,277.742096 393.074677,271.784424 398.423370,269.627289 
	C393.791443,270.419189 390.922668,273.058197 389.464813,278.323822 
M364.312927,132.864151 
	C362.854736,124.153725 360.932251,122.234833 355.808411,124.666656 
	C357.438812,127.091431 360.072052,128.796799 360.577942,132.012268 
	C360.774078,133.258835 362.347015,133.886765 364.312927,132.864151 
M237.399826,75.545502 
	C235.692688,71.422493 231.580978,73.278786 230.413910,74.407455 
	C227.612686,77.116554 229.987839,80.546097 230.946228,84.741486 
	C232.400589,81.176529 231.359589,78.602112 231.438309,76.299644 
	C234.423157,74.764481 235.307297,76.667885 235.789215,78.866623 
	C237.133911,78.102951 237.260010,77.107674 237.399826,75.545502 
M387.906158,327.445465 
	C386.478760,329.771027 388.344879,329.886780 389.619751,329.542175 
	C393.008148,328.626190 395.428101,326.352539 396.494171,323.002258 
	C397.460541,319.965363 396.096832,317.671967 393.203064,315.197662 
	C395.897491,323.389648 394.804718,325.858734 387.906158,327.445465 
M355.541687,145.320114 
	C351.702301,144.178909 349.426941,138.743179 343.684174,140.571899 
	C346.723572,145.818680 351.291168,145.308060 355.541687,145.320114 
M268.670685,105.935532 
	C269.805817,106.976357 270.597107,108.640610 272.947662,108.138062 
	C271.093628,103.592598 273.722321,103.989014 278.178497,105.820618 
	C275.176483,103.200951 273.611969,101.835686 272.042847,100.466415 
	C270.037018,101.747604 268.959442,103.306526 268.670685,105.935532 
M274.390381,89.276352 
	C273.254974,85.316788 275.797607,82.762589 277.998108,80.024055 
	C274.678101,81.179634 272.213623,82.965103 272.229004,86.825699 
	C272.242249,90.156097 273.357330,92.772583 276.836243,94.218628 
	C277.327484,91.912476 275.584015,91.049828 274.390381,89.276352 
M347.334259,125.929504 
	C347.615356,124.571709 348.840729,123.313950 347.696991,121.560310 
	C344.236389,122.826088 342.070862,125.190323 340.661072,128.687912 
	C343.378448,128.981537 344.992676,127.326607 347.334259,125.929504 
M415.063995,228.539993 
	C413.737274,233.070663 409.622131,234.722229 405.376953,237.072464 
	C412.214844,237.358658 417.418945,231.531326 415.864532,226.302841 
	C415.066162,226.629547 415.276642,227.371246 415.063995,228.539993 
M294.171722,85.537704 
	C293.169983,86.650497 293.962402,87.805405 294.814423,87.741570 
	C297.053802,87.573776 297.822754,85.669914 298.527252,83.740791 
	C296.317413,81.170029 293.460815,80.351463 290.391022,79.879150 
	C291.732513,81.290771 293.329010,82.278801 294.878693,83.335495 
	C295.993927,84.095932 296.102753,84.834457 294.171722,85.537704 
M285.929840,110.802155 
	C286.892700,107.447464 284.026825,107.510056 282.214661,106.723015 
	C279.891022,105.713829 279.030701,107.210106 278.377350,109.194565 
	C280.605621,110.323196 282.848602,111.067253 285.929840,110.802155 
M315.952789,118.702248 
	C316.212555,115.154854 318.688934,113.192421 322.334045,111.232208 
	C317.657806,111.488930 313.331299,115.251884 313.455414,118.257439 
	C313.512268,119.633919 314.250580,120.502625 315.952789,118.702248 
M308.773621,115.039490 
	C306.632019,114.500557 304.996704,114.952316 304.029175,117.582497 
	C306.589142,117.944862 308.302246,121.715515 311.029724,119.018875 
	C312.414978,117.649239 311.124939,116.001358 308.773621,115.039490 
M394.747131,309.599670 
	C390.266235,307.383209 388.362762,308.527954 388.500458,313.437683 
	C391.240509,313.612640 392.872437,311.717560 394.747131,309.599670 
M405.653778,222.373489 
	C406.028717,220.845917 406.403625,219.318329 406.984985,216.949799 
	C404.555420,218.512009 406.518433,224.072098 401.965424,220.907104 
	C401.449951,222.162994 401.752747,223.130447 402.359650,224.243256 
	C402.925293,225.280426 402.980560,226.595932 403.292999,227.927322 
	C405.316071,226.722076 405.085815,224.726303 405.653778,222.373489 
M387.712067,300.178925 
	C384.273224,296.457214 388.103455,296.483215 390.201202,295.556793 
	C388.664948,293.527588 387.074829,294.049011 385.657806,295.454407 
	C384.433350,296.668823 383.909180,298.237671 384.634674,299.949310 
	C385.026855,300.874542 385.487274,300.920898 387.712067,300.178925 
M221.908981,89.007210 
	C222.570312,91.217072 223.231628,93.426941 223.892944,95.636810 
	C224.240936,91.678246 224.918900,87.567200 220.476715,85.020660 
	C219.606216,87.129784 221.056717,87.639008 221.908981,89.007210 
M355.767090,151.838791 
	C358.538025,154.542496 359.114746,151.709610 360.398102,150.246597 
	C356.579681,147.629608 356.466949,147.660538 355.767090,151.838791 
M378.374481,140.267792 
	C378.936523,139.460739 380.771545,139.782532 380.203125,137.204407 
	C377.105011,139.819458 374.371368,142.126862 371.637726,144.434265 
	C374.653229,144.353714 376.422028,142.706696 378.374481,140.267792 
M371.922333,170.631302 
	C373.177856,168.576477 373.005768,166.565353 372.065582,163.982056 
	C369.342194,169.007050 369.342194,169.007050 371.922333,170.631302 
M375.305023,138.372406 
	C376.892273,137.383362 378.719452,136.542587 378.138641,133.451035 
	C376.381500,134.450073 374.839508,135.022736 373.706177,136.047424 
	C372.259644,137.355270 372.830780,138.319870 375.305023,138.372406 
M393.031189,250.701385 
	C392.589447,252.576172 392.337219,254.400528 394.518250,256.095886 
	C394.723022,253.442902 394.892334,251.249207 395.061646,249.055496 
	C394.711334,248.808868 394.360992,248.562256 394.010681,248.315643 
	C393.763275,248.922836 393.515869,249.530029 393.031189,250.701385 
z"/>
<path fill="#000000" opacity="1.000000" stroke="none" 
	d="
M252.030380,407.962341 
	C252.100418,411.310669 252.564468,414.673126 254.019257,417.633636 
	C255.569809,420.789032 253.989044,421.759277 251.428268,422.859497 
	C249.142212,420.220642 248.669815,417.050781 247.636734,414.053619 
	C247.877686,419.299347 247.200409,424.781464 252.159927,428.626190 
	C251.653397,431.725403 249.585526,432.805206 246.839645,432.927032 
	C245.014786,433.007965 243.104156,433.232574 241.365707,432.823822 
	C233.905640,431.069672 226.844421,432.397186 219.836960,435.002045 
	C215.552200,436.594757 211.577118,437.127289 210.285309,431.035126 
	C209.858414,429.021942 208.003067,428.479950 206.117569,427.975281 
	C202.501602,427.007446 198.932556,425.536011 198.158279,421.350220 
	C197.198502,416.161591 193.171982,414.480560 189.138367,414.316711 
	C183.220856,414.076324 177.632736,412.146606 171.479355,412.587616 
	C162.559158,413.226868 152.506531,408.130157 150.381378,397.107056 
	C149.316498,391.583557 145.108261,386.859039 147.032867,380.397797 
	C147.416824,379.108765 145.695786,375.725006 145.370682,373.142059 
	C145.042313,370.533142 143.283905,370.220184 140.916168,370.815063 
	C135.782211,372.104950 131.378067,375.358948 125.999908,376.066925 
	C124.140305,376.311707 122.517899,376.412872 120.669006,375.956696 
	C116.592964,374.950958 112.869972,373.182831 108.146309,374.144379 
	C102.551079,375.283325 95.934837,366.978882 97.487648,359.967072 
	C99.118652,352.602173 95.717514,348.461151 90.813988,344.777863 
	C86.392555,341.456726 83.463577,337.143280 80.817703,332.495422 
	C79.816765,330.737122 78.517548,328.669922 79.330406,326.852295 
	C82.178101,320.484558 78.380722,315.858215 75.342659,311.270996 
	C73.230232,308.081390 71.616264,305.057831 71.819336,301.177094 
	C71.936516,298.937805 71.184769,296.931702 69.703590,295.197388 
	C65.959984,290.813965 64.445534,285.850433 64.791969,279.987335 
	C65.438080,269.052948 63.994537,258.064758 66.625465,247.156143 
	C68.831223,238.010406 73.080864,229.820908 76.760963,221.318268 
	C79.649811,214.643799 82.737129,208.036499 83.981438,200.670959 
	C85.329315,192.692322 91.130424,186.931168 94.862900,180.118118 
	C97.062599,181.366730 96.531487,182.765732 95.984947,183.570801 
	C92.923965,188.079758 94.194519,193.965271 90.962524,198.481888 
	C89.244331,200.882996 91.046814,202.395645 93.456100,203.214127 
	C98.657104,204.981049 103.866615,206.748184 108.722755,209.362717 
	C110.245537,210.182556 112.280357,210.611755 112.307709,213.011108 
	C110.515327,214.735352 109.219147,213.080582 107.920868,212.350494 
	C100.045364,207.921646 93.284355,208.661026 88.249077,214.588043 
	C83.711258,219.929443 84.197342,226.965805 89.720177,234.168365 
	C90.570671,232.378128 89.044586,231.446564 88.637764,230.177002 
	C87.665611,227.143280 84.942741,224.816116 87.305397,220.654724 
	C91.452797,213.349838 90.950394,213.119431 98.539291,216.787003 
	C100.477020,217.723450 102.242882,219.202621 104.570969,216.493881 
	C106.268494,214.518799 108.034981,216.391403 108.928871,218.494095 
	C111.507027,224.558701 109.335876,230.352142 102.890747,234.221237 
	C101.275482,233.132507 101.554527,230.410233 99.158989,229.691055 
	C97.345932,231.204422 97.870857,232.733490 99.024002,234.362564 
	C100.179375,235.994812 101.907852,237.359695 103.649429,236.524124 
	C110.026489,233.464462 111.683304,238.771530 112.663094,242.352783 
	C114.665436,249.671478 118.215935,256.246979 121.132523,263.110748 
	C123.461182,268.590851 124.479706,274.257721 124.964722,280.063721 
	C125.519165,286.700897 129.458588,291.182373 136.011368,290.816528 
	C142.193741,290.471344 146.996948,292.375854 151.277893,296.583832 
	C153.685196,298.950104 156.740173,300.602295 159.978104,301.338684 
	C177.452164,305.312866 187.894485,316.603149 193.423569,333.065277 
	C195.186508,338.314209 198.041916,342.617706 202.794739,345.587738 
	C205.955872,347.563171 206.351303,350.787384 205.950119,353.990601 
	C204.727829,363.749756 209.888123,369.599548 217.641296,374.116852 
	C220.216644,375.617371 222.714600,377.352478 224.944855,379.323303 
	C230.345413,384.095673 237.260162,383.407776 243.589310,384.631287 
	C247.858246,385.456573 251.653900,386.780060 254.536423,390.018402 
	C256.324127,392.026764 258.449402,392.937622 261.971741,392.368256 
	C260.329407,403.964478 257.612488,414.757111 260.351959,425.836670 
	C257.038086,422.304993 256.374237,417.873291 255.369476,413.745605 
	C254.828857,411.524658 254.263748,409.709015 252.358643,407.751892 
	C253.118576,402.416290 252.538422,397.885559 250.000824,393.088043 
	C247.230713,396.647491 254.928238,404.986298 244.002304,402.864319 
	C245.397018,405.413757 246.617142,407.644012 247.919952,410.025452 
	C249.429016,409.268036 250.729706,408.615173 252.030380,407.962341 
M217.371048,396.247955 
	C214.048782,401.584900 211.093063,407.105286 208.991287,413.008270 
	C208.991287,413.008270 209.013824,412.975037 208.485809,413.411804 
	C207.838974,414.372375 207.007660,415.259369 206.588486,416.310699 
	C205.957031,417.894470 204.265549,419.724182 206.308899,421.240753 
	C207.842148,422.378754 209.938644,422.092896 211.568359,421.253571 
	C212.664795,420.688843 213.691452,419.522339 214.210632,418.380188 
	C217.155090,411.902649 222.131943,405.733948 217.747574,397.945404 
	C217.489822,397.487518 217.893631,396.657196 218.408585,395.434143 
	C219.730835,393.229034 221.194443,391.070831 224.231003,391.935028 
	C226.905182,392.696106 226.884964,395.061493 227.508667,397.370178 
	C228.466614,400.916046 228.229416,404.853760 230.782028,409.265167 
	C231.200867,403.710541 229.422882,399.730469 228.971207,395.585754 
	C228.495956,391.224823 225.805679,389.450836 221.985153,389.469269 
	C217.588776,389.490509 218.061600,393.046844 217.371048,396.247955 
M140.424103,360.779388 
	C134.842163,360.533264 133.006226,366.148346 128.628036,368.481476 
	C125.485527,364.855743 122.055290,361.762512 117.887955,359.250183 
	C112.919434,356.254883 111.459412,346.891113 115.355827,343.556091 
	C118.401123,340.949646 120.783264,338.244965 122.436478,334.674377 
	C119.141403,333.789276 120.043167,337.575226 118.177162,338.444550 
	C111.882706,341.376892 109.146194,347.908356 111.794136,354.274994 
	C114.931313,361.817871 121.024948,367.264832 125.986015,374.132935 
	C131.307831,369.471283 136.146179,365.233124 141.547684,360.631042 
	C144.064163,358.487152 146.652527,356.420502 149.070908,354.171143 
	C150.585922,352.762024 151.243774,351.210815 148.038757,350.304718 
	C147.230164,353.015808 145.857086,355.068329 143.348099,356.354767 
	C141.637863,357.231628 141.006454,359.069153 140.424103,360.779388 
M81.900665,248.235367 
	C89.775688,247.951706 97.649765,247.635162 105.526466,247.410278 
	C107.236328,247.361450 108.928154,247.575958 109.568985,245.458694 
	C109.923538,244.287247 110.009872,243.085312 109.019363,242.211304 
	C107.325478,240.716721 105.953796,242.294022 104.471870,242.823990 
	C102.017731,243.701691 99.592293,246.355225 97.091118,245.065094 
	C91.408073,242.133728 85.147095,243.250153 79.320030,241.701981 
	C74.288780,240.365250 73.511383,242.953384 74.499146,247.323853 
	C76.752121,246.957870 78.904305,247.823227 81.900665,248.235367 
M205.288315,392.364258 
	C205.565964,397.485687 203.170807,401.170258 199.145874,404.062866 
	C197.954758,404.918884 197.206070,406.108398 195.316208,405.174744 
	C192.629837,403.847626 196.339676,402.559235 195.315094,401.455566 
	C191.649109,399.777039 187.694199,406.108856 183.993912,399.934509 
	C181.144592,395.180145 181.493271,391.593719 184.525772,387.258240 
	C180.348495,388.184845 179.986938,389.009521 180.277328,395.674561 
	C180.502914,400.852722 186.425156,406.232941 192.433060,406.717834 
	C199.215805,407.265228 205.121323,403.313751 206.727112,397.153503 
	C208.271866,391.227417 207.057419,388.218018 202.239960,386.116882 
	C202.995422,388.139038 205.294281,389.280914 205.288315,392.364258 
M99.479431,300.924744 
	C100.677055,298.452118 104.649002,298.573242 105.055084,294.947388 
	C100.707726,295.635773 98.886574,299.509094 95.716141,301.431183 
	C91.588776,303.933380 92.273026,307.091034 94.952362,310.931885 
	C100.164040,305.837128 107.275169,303.656006 110.751137,297.096588 
	C106.555901,299.845673 102.653435,302.967804 98.670647,305.983856 
	C97.767281,306.667938 96.501030,307.229828 95.649902,305.819214 
	C94.921326,304.611755 95.505318,303.522034 96.473251,302.759827 
	C97.232964,302.161530 98.179832,301.800903 99.479431,300.924744 
M159.992874,399.951416 
	C160.357758,404.080231 163.881973,404.694427 166.492325,404.264313 
	C170.912476,403.535980 170.046005,399.042419 171.226837,395.742188 
	C166.590332,394.815735 162.641602,394.700775 159.992874,399.951416 
M153.965408,371.832458 
	C153.237274,373.495209 152.576065,375.191254 151.768478,376.814484 
	C149.321304,381.733215 155.215729,390.494080 161.041962,390.551086 
	C150.040863,380.694702 152.537399,374.654480 161.807770,366.911346 
	C157.475342,367.307312 157.475342,367.307312 153.965408,371.832458 
M124.297157,328.043518 
	C129.925537,321.850800 124.776176,311.108765 120.001587,307.937836 
	C116.823853,305.827423 115.379875,306.624329 114.985161,310.657715 
	C118.173370,309.047913 119.191025,309.143219 121.174194,311.671997 
	C124.622231,316.068634 125.340225,320.815948 122.900764,325.996826 
	C122.560745,326.718964 119.455421,329.295319 124.297157,328.043518 
M187.824219,397.895508 
	C187.844315,396.216827 187.957947,394.571777 189.468994,393.360321 
	C191.952072,395.427673 194.750336,396.895569 197.868851,398.265472 
	C197.676514,392.864899 195.099716,391.145966 186.807938,390.412048 
	C184.646973,395.881622 184.720215,396.669067 187.824219,397.895508 
M102.239426,324.278137 
	C100.128021,317.878540 103.110687,313.231750 107.922623,309.214386 
	C100.327583,312.096527 97.921066,317.289490 100.340347,324.457642 
	C102.206024,329.985504 105.755806,332.726196 109.982330,331.477325 
	C105.227127,331.636139 104.403709,327.705719 102.239426,324.278137 
M106.970551,317.216125 
	C111.037758,317.905853 110.775253,323.965790 116.073975,323.997742 
	C116.430595,318.649963 112.385139,315.351074 110.089531,310.846191 
	C110.695366,313.361145 110.313408,314.640198 107.713654,314.610962 
	C106.932426,314.602203 105.247597,315.410248 106.970551,317.216125 
M92.787735,287.084961 
	C91.378281,287.431580 89.830315,287.543915 88.766045,290.121368 
	C94.120377,289.178192 98.476379,292.679962 104.001434,291.541107 
	C100.352463,291.081177 99.266998,288.786377 99.145477,285.668030 
	C96.977570,286.189362 95.237038,286.607941 92.787735,287.084961 
M129.274872,359.986176 
	C129.068726,360.420807 128.862579,360.855438 128.180817,362.292877 
	C134.098785,357.906860 139.886490,354.944702 143.054459,348.526672 
	C140.996445,347.349396 139.289841,346.458496 137.490997,343.732361 
	C139.272354,350.626373 139.291199,350.645935 134.489334,355.275696 
	C132.940811,356.768677 131.264389,358.129028 129.274872,359.986176 
M108.681587,270.546265 
	C111.468620,263.999268 109.356888,257.250397 103.338577,255.894897 
	C106.104935,257.725952 107.373947,259.763397 107.768234,262.298187 
	C104.133728,264.736328 104.159988,264.712250 107.226158,268.056396 
	C107.754364,268.632477 107.952690,269.511017 108.681587,270.546265 
M223.259918,404.885101 
	C224.222900,409.636383 225.185883,414.387634 226.148865,419.138916 
	C227.225067,412.883240 226.111420,406.953125 224.174805,401.164978 
	C223.975540,400.569427 222.819153,400.314972 222.022949,401.054962 
	C222.423050,402.094910 222.822495,403.133118 223.259918,404.885101 
M242.882507,393.137665 
	C239.360443,395.221527 237.847092,398.230835 238.341888,402.391022 
	C243.366760,401.191772 244.128387,397.212189 244.930038,393.391937 
	C245.118607,392.493347 244.026245,392.871582 242.882507,393.137665 
M183.448517,375.445862 
	C178.757050,373.434937 174.717468,370.381561 170.157379,365.761414 
	C172.291397,373.465240 180.409348,373.385071 182.050461,379.493591 
	C183.621399,378.773590 184.331406,377.653442 183.448517,375.445862 
M95.864731,274.836945 
	C92.328949,277.983124 89.641762,276.009674 87.113815,273.075531 
	C89.847076,278.515442 96.093719,281.157379 100.289520,278.715546 
	C98.327675,278.070374 97.876732,276.050079 95.864731,274.836945 
M139.719421,338.886993 
	C138.784256,337.886017 138.387070,336.167023 136.217606,336.427460 
	C136.103699,338.514587 133.072098,339.742096 134.589691,342.902039 
	C137.551590,340.585022 140.295837,341.222595 143.060593,343.603729 
	C143.015488,340.989105 140.700165,340.892975 139.719421,338.886993 
M113.312378,295.357422 
	C117.439819,294.487732 115.763222,291.763428 114.898521,289.680267 
	C112.925697,284.927490 109.060677,286.401459 105.538979,286.961761 
	C113.518776,288.457214 113.539635,288.478973 113.312378,295.357422 
M174.729355,378.964325 
	C174.551651,377.832550 174.046066,377.123901 172.296936,377.524017 
	C172.840332,383.053741 168.773682,385.174835 164.675873,387.388245 
	C169.982437,387.400513 172.504898,383.725067 174.729355,378.964325 
M192.564865,380.480530 
	C190.706985,381.074677 188.669464,381.241333 187.142181,382.728485 
	C187.114075,384.479401 187.284210,386.220062 189.438629,386.413940 
	C190.513336,386.510651 192.488617,385.663391 192.092041,384.854248 
	C191.119843,382.870667 193.556396,382.055298 192.564865,380.480530 
M97.925865,262.838104 
	C97.912445,262.673523 97.917046,262.504852 97.880524,262.345551 
	C97.844200,262.187134 97.766548,262.038177 97.707024,261.885071 
	C96.132179,262.592804 94.091187,263.231354 94.700790,265.412659 
	C95.400826,267.917511 95.267151,271.473267 100.686226,271.213409 
	C95.546112,269.269196 97.622452,266.148865 97.925865,262.838104 
M84.616493,265.234924 
	C84.720749,269.042877 87.737999,267.149048 89.460930,267.547852 
	C90.261833,267.733215 90.758194,266.297516 90.379883,265.614716 
	C89.479340,263.989288 87.867317,264.456787 86.399689,264.692139 
	C85.920151,264.769043 85.429657,264.777557 84.616493,265.234924 
M118.987877,352.992737 
	C118.338425,351.490204 119.423119,349.683716 118.167549,348.200806 
	C117.801392,355.797302 117.801392,355.797302 120.554901,357.624908 
	C120.056595,356.127136 119.647224,354.896698 118.987877,352.992737 
z"/>
<path fill="#000000" opacity="1.000000" stroke="none" 
	d="
M344.063446,366.965210 
	C345.712311,364.569183 347.646484,363.170959 350.160950,364.318970 
	C352.661133,365.460480 354.423462,367.641052 354.803680,370.406891 
	C355.106506,372.609650 353.325989,374.020081 351.742310,375.210266 
	C350.114990,376.433289 348.291748,376.375580 346.683563,375.076782 
	C344.194855,373.066864 342.665253,370.655151 344.063446,366.965210 
z"/>
<path fill="#000000" opacity="1.000000" stroke="none" 
	d="
M176.719025,96.638031 
	C173.697754,99.460876 174.912613,102.345001 175.958954,105.134850 
	C177.435471,109.071686 179.054962,112.954895 180.875458,117.518044 
	C176.735657,115.183411 169.485291,102.164688 170.036072,98.890373 
	C170.163330,98.133865 170.579529,97.160942 171.175308,96.791260 
	C175.049118,94.387505 178.893555,91.852303 184.378021,90.849297 
	C182.451920,94.448631 179.279373,94.846130 176.719025,96.638031 
z"/>
<path fill="#000000" opacity="1.000000" stroke="none" 
	d="
M105.987335,205.143692 
	C102.455521,204.048340 99.267883,203.159149 96.208443,201.946533 
	C93.999245,201.070892 93.315628,199.159714 94.511772,197.068008 
	C95.674217,195.035217 97.453659,195.022522 99.060898,196.588654 
	C103.299484,200.718842 108.447929,203.076447 114.041809,204.703339 
	C115.042397,204.994339 116.212875,205.663513 115.810112,207.555054 
	C112.648438,206.768738 109.517418,205.990051 105.987335,205.143692 
z"/>
<path fill="#000000" opacity="1.000000" stroke="none" 
	d="
M202.760590,93.444885 
	C204.474487,95.139107 204.865921,97.087952 205.390701,99.013718 
	C207.631134,107.235184 207.655182,107.228630 215.218491,109.272057 
	C211.631836,112.237450 206.031921,111.683144 204.142349,107.623894 
	C202.347137,103.767349 201.404648,99.492340 200.316589,95.341217 
	C199.988174,94.088326 200.930420,93.168365 202.760590,93.444885 
z"/>
<path fill="#000000" opacity="1.000000" stroke="none" 
	d="
M162.863281,97.478363 
	C168.146408,100.905075 171.160690,107.060493 172.415726,116.397179 
	C167.092087,114.900757 163.496643,107.993179 162.863281,97.478363 
z"/>
<path fill="#000000" opacity="1.000000" stroke="none" 
	d="
M340.064148,367.071228 
	C340.187195,372.843445 345.272278,375.638428 348.237579,380.741913 
	C342.409912,380.754120 339.500092,377.553192 337.745941,374.191925 
	C336.781342,372.343658 335.953979,368.354248 340.064148,367.071228 
z"/>
<path fill="#000000" opacity="1.000000" stroke="none" 
	d="
M251.922455,82.618240 
	C251.347290,85.103355 252.546021,87.584930 250.494583,89.751472 
	C247.301056,86.405472 246.400391,82.640984 246.817230,78.433952 
	C246.948318,77.110924 247.036499,75.606758 248.733902,75.430054 
	C250.773911,75.217682 251.031387,76.839371 251.276901,78.348427 
	C251.487732,79.644287 251.711838,80.937996 251.922455,82.618240 
z"/>
<path fill="#000000" opacity="1.000000" stroke="none" 
	d="
M208.979187,413.024597 
	C211.624176,411.793884 212.241226,409.066437 213.490997,406.799957 
	C214.426147,405.104034 215.012939,403.009003 217.620209,403.257904 
	C217.819412,407.491028 216.705902,410.285461 212.577255,415.911133 
	C210.639862,416.303680 210.183945,414.617676 209.158829,413.250793 
	C209.013824,412.975037 208.991287,413.008270 208.979187,413.024597 
z"/>
</svg>